<?xml version="1.0" standalone="no"?>
<!DOCTYPE svg PUBLIC "-//W3C//DTD SVG 20010904//EN"
 "http://www.w3.org/TR/2001/REC-SVG-20010904/DTD/svg10.dtd">
<svg version="1.0" xmlns="http://www.w3.org/2000/svg"
 width="512.000000pt" height="512.000000pt" viewBox="0 0 512.000000 512.000000"
 preserveAspectRatio="xMidYMid meet">
<metadata>
Created by potrace 1.14, written by Peter Selinger 2001-2017
</metadata>
<g transform="translate(0.000000,512.000000) scale(0.100000,-0.100000)"
fill="#000000" stroke="none">
<path d="M2464 4894 c-256 -76 -359 -369 -204 -583 36 -48 114 -109 153 -117
15 -4 30 -11 34 -17 3 -5 6 -131 7 -278 l1 -269 -60 0 c-33 -1 -298 -2 -590
-3 -520 -3 -531 -4 -600 -26 -229 -74 -391 -249 -445 -481 -11 -43 -13 -283
-13 -1120 0 -586 3 -1090 6 -1120 16 -142 86 -281 196 -387 50 -48 159 -113
237 -140 l79 -28 1290 0 c1230 0 1293 1 1350 19 113 35 195 85 280 170 105
105 161 217 182 358 8 57 8 2128 0 2193 -18 143 -95 295 -198 391 -60 57 -161
114 -249 142 l-85 27 -580 0 c-319 0 -582 3 -585 7 -4 5 -5 438 -1 523 1 14
17 28 54 45 129 61 212 198 209 347 -4 156 -125 309 -277 348 -50 12 -148 12
-191 -1z m-441 -2158 c171 -84 253 -267 198 -443 -52 -170 -200 -271 -382
-261 -94 6 -166 38 -233 104 -179 176 -135 478 85 590 75 38 102 43 194 40 64
-2 92 -8 138 -30z m1403 -10 c271 -146 263 -522 -14 -662 -52 -27 -66 -29
-162 -29 -95 1 -110 3 -158 28 -79 41 -134 97 -171 173 -82 167 -28 369 124
471 74 49 132 64 231 59 71 -3 90 -8 150 -40z m-169 -1307 c20 -11 45 -54 50
-88 5 -39 -26 -80 -84 -109 -132 -66 -323 -125 -457 -140 -83 -9 -369 -9 -431
1 -143 23 -317 77 -433 136 -50 25 -67 40 -78 67 -28 67 21 144 92 144 18 0
70 -16 115 -36 173 -76 325 -108 519 -108 176 -1 253 10 415 60 49 15 62 21
155 62 75 33 92 35 137 11z"/>
<path d="M1805 2546 c-16 -8 -43 -28 -59 -45 -24 -25 -30 -42 -34 -91 -4 -53
-1 -64 22 -95 38 -49 71 -68 124 -71 172 -10 232 223 77 298 -39 19 -93 21
-130 4z"/>
<path d="M3184 2542 c-154 -79 -95 -305 77 -298 119 5 187 131 127 237 -38 68
-134 97 -204 61z"/>
<path d="M357 2658 c-98 -21 -192 -101 -228 -196 -20 -55 -21 -72 -23 -457 -1
-220 2 -424 7 -453 15 -103 78 -189 172 -236 45 -23 73 -30 146 -34 58 -3 94
-1 98 6 4 8 6 1204 2 1355 -1 28 -1 28 -68 26 -38 -1 -85 -6 -106 -11z"/>
<path d="M4589 2638 c-5 -164 -3 -1342 2 -1350 4 -7 40 -9 98 -6 71 4 102 11
145 32 86 42 155 131 172 221 8 45 9 836 1 877 -19 93 -92 183 -184 225 -42
20 -77 27 -144 30 l-89 4 -1 -33z"/>
</g>
</svg>
